<?xml version="1.0" encoding="UTF-8"?>
<svg id="Layer_1" xmlns="http://www.w3.org/2000/svg" version="1.1" viewBox="0 0 595.3 841.9" xmlns:c2pa="http://c2pa.org/manifest"><metadata><c2pa:manifest>AAAWgmp1bWIAAAAeanVtZGMycGEAEQAQgAAAqgA4m3EDYzJwYQAAABZcanVtYgAAAEdqdW1kYzJtYQARABCAAACqADibcQN1cm46YzJwYTo5YzA0YjFiOC1jZDc0LTRmMGItOTkyNi02ODk1YTJlYTFkYTQAAAADl2p1bWIAAAApanVtZGMyYXMAEQAQgAAAqgA4m3EDYzJwYS5hc3NlcnRpb25zAAAAALxqdW1iAAAARGp1bWRjYm9yABEAEIAAAKoAOJtxE2MycGEuaW5ncmVkaWVudC52MwAAAAAYYzJzaPKbbP9dUmQwQ6jYoH6jFzUAAABwY2JvcqNpZGM6Zm9ybWF0bWltYWdlL3N2Zyt4bWxqaW5zdGFuY2VJRHgseG1wOmlpZDpkYmE3ZTg5Mi0yZGQ5LTQxNjAtYTYyNy1iYmMwYmIwOTU1MjBscmVsYXRpb25zaGlwaHBhcmVudE9mAAAB4mp1bWIAAABBanVtZGNib3IAEQAQgAAAqgA4m3ETYzJwYS5hY3Rpb25zLnYyAAAAABhjMnNoSzWITpmWrNYEAAFXdGL63wAAAZljYm9yomdhY3Rpb25zgqJmYWN0aW9ua2MycGEub3BlbmVkanBhcmFtZXRlcnOha2luZ3JlZGllbnRzgaJjdXJseC1zZWxmI2p1bWJmPWMycGEuYXNzZXJ0aW9ucy9jMnBhLmluZ3JlZGllbnQudjNkaGFzaFggCnxlCsE8m3x/qaxuuz3ECl5IyST6J7+EnEeuKeTAoWqkZmFjdGlvbngdY29tLmFudGhyb3BpYy5jbGF1ZGUucHJvdmlkZWRqcGFyYW1ldGVyc6F4H2NvbS5hbnRocm9waWMub3JpZ2luLWNvbmZpZGVuY2VndW5rbm93bmtkZXNjcmlwdGlvbnhmQ2xhdWRlIHByb3ZpZGVkIHRoaXMgZmlsZSBhdCB0aGUgcmVxdWVzdCBvZiBhIHVzZXIgYW5kIG1heSBoYXZlIGNyZWF0ZWQgb3IgbW9kaWZpZWQgdGhlIGZpbGUgY29udGVudHMubXNvZnR3YXJlQWdlbnShZG5hbWVmQ2xhdWRlcmFsbEFjdGlvbnNJbmNsdWRlZPUAAADIanVtYgAAAEBqdW1kY2JvcgARABCAAACqADibcRNjMnBhLmhhc2guZGF0YQAAAAAYYzJzaGgsOFA7LQK/1CuNgBdEaC4AAACAY2JvcqVjYWxnZnNoYTI1NmNwYWRNAAAAAAAAAAAAAAAAAGRoYXNoWCC142GHY5a01gFGrgpPDrk71vnqeOL2lR4+MvgG72DhHGRuYW1lbmp1bWJmIG1hbmlmZXN0amV4Y2x1c2lvbnOBomVzdGFydBjDZmxlbmd0aBkeBAAAAj5qdW1iAAAAJ2p1bWRjMmNsABEAEIAAAKoAOJtxA2MycGEuY2xhaW0udjIAAAACD2Nib3KlY2FsZ2ZzaGEyNTZpc2lnbmF0dXJleE1zZWxmI2p1bWJmPS9jMnBhL3VybjpjMnBhOjljMDRiMWI4LWNkNzQtNGYwYi05OTI2LTY4OTVhMmVhMWRhNC9jMnBhLnNpZ25hdHVyZWppbnN0YW5jZUlEeCx4bXA6aWlkOjgzZGQ1MDI0LTViNTEtNGZiNi1hZmQwLWY1OGE5NGU3MzkwOHJjcmVhdGVkX2Fzc2VydGlvbnODomN1cmx4LXNlbGYjanVtYmY9YzJwYS5hc3NlcnRpb25zL2MycGEuaW5ncmVkaWVudC52M2RoYXNoWCAKfGUKwTybfH+prG67PcQKXkjJJPonv4ScR64p5MChaqJjdXJseCpzZWxmI2p1bWJmPWMycGEuYXNzZXJ0aW9ucy9jMnBhLmFjdGlvbnMudjJkaGFzaFgggJ7a8A6/noQRiJsOVonTpo3KPL6i6yvx0a4oTzf5somiY3VybHgpc2VsZiNqdW1iZj1jMnBhLmFzc2VydGlvbnMvYzJwYS5oYXNoLmRhdGFkaGFzaFggJbWN6+7Ir9Ybs6QvmqqWUCPUXaeC91nRKptpMQUtDYN0Y2xhaW1fZ2VuZXJhdG9yX2luZm+jZG5hbWVvQW50aHJvcGljIEZpbGVzZ3ZlcnNpb25lMS4wLjBrc3BlY1ZlcnNpb25lMi40LjAAABA4anVtYgAAAChqdW1kYzJjcwARABCAAACqADibcQNjMnBhLnNpZ25hdHVyZQAAABAIY2JvctKEWQISogEmGCFZAgowggIGMIIBjaADAgECAhRA5aAK7sI50L64g/oGQgU9Z1UTADAKBggqhkjOPQQDAzBJMRcwFQYDVQQKEw5BbnRocm9waWMsIFBCQzEuMCwGA1UEAxMlQW50aHJvcGljIENvbnRlbnQgQ3JlZGVudGlhbHMgUm9vdCBDQTAeFw0yNjA4MDcxODQzNTZaFw0yODA4MDYxOTQzNTZaMEQxFzAVBgNVBAoTDkFudGhyb3BpYywgUEJDMSkwJwYDVQQDEyBBbnRocm9waWMgQ2xhdWRlIENvbnRlbnQgU2lnbmluZzBZMBMGByqGSM49AgEGCCqGSM49AwEHA0IABJh6CmvLUBgFFNU0vUKlOVtE6djd17L5SuwX0LemFisBM3dkd/3cyjxFA3Qo5S46fX0/ihY0VZ7mfb9KF703t5OjWDBWMA4GA1UdDwEB/wQEAwIHgDAVBgNVHSUEDjAMBgorBgEEAYPoXgIBMAwGA1UdEwEB/wQCMAAwHwYDVR0jBBgwFoAUzlHiBIFOZFsj+OPEz5o+nMHXXMIwCgYIKoZIzj0EAwMDZwAwZAIwMXMdFJ4BetLLVY7ORuE9noqbbAZOZn/aArXyTwFAZfKrPzxF2vPoJNf1+UCdg1XGAjBwX1zd9WGqYkqmL5SFqw1QySjr1zJfpJM9+1rdDwSPLMOPOjKuiXjoU/pUUeG9RwmhY3BhZFkNngAAAAAAAAAAAAAAAAAAAAAAAAAAAAAAAAAAAAAAAAAAAAAAAAAAAAAAAAAAAAAAAAAAAAAAAAAAAAAAAAAAAAAAAAAAAAAAAAAAAAAAAAAAAAAAAAAAAAAAAAAAAAAAAAAAAAAAAAAAAAAAAAAAAAAAAAAAAAAAAAAAAAAAAAAAAAAAAAAAAAAAAAAAAAAAAAAAAAAAAAAAAAAAAAAAAAAAAAAAAAAAAAAAAAAAAAAAAAAAAAAAAAAAAAAAAAAAAAAAAAAAAAAAAAAAAAAAAAAAAAAAAAAAAAAAAAAAAAAAAAAAAAAAAAAAAAAAAAAAAAAAAAAAAAAAAAAAAAAAAAAAAAAAAAAAAAAAAAAAAAAAAAAAAAAAAAAAAAAAAAAAAAAAAAAAAAAAAAAAAAAAAAAAAAAAAAAAAAAAAAAAAAAAAAAAAAAAAAAAAAAAAAAAAAAAAAAAAAAAAAAAAAAAAAAAAAAAAAAAAAAAAAAAAAAAAAAAAAAAAAAAAAAAAAAAAAAAAAAAAAAAAAAAAAAAAAAAAAAAAAAAAAAAAAAAAAAAAAAAAAAAAAAAAAAAAAAAAAAAAAAAAAAAAAAAAAAAAAAAAAAAAAAAAAAAAAAAAAAAAAAAAAAAAAAAAAAAAAAAAAAAAAAAAAAAAAAAAAAAAAAAAAAAAAAAAAAAAAAAAAAAAAAAAAAAAAAAAAAAAAAAAAAAAAAAAAAAAAAAAAAAAAAAAAAAAAAAAAAAAAAAAAAAAAAAAAAAAAAAAAAAAAAAAAAAAAAAAAAAAAAAAAAAAAAAAAAAAAAAAAAAAAAAAAAAAAAAAAAAAAAAAAAAAAAAAAAAAAAAAAAAAAAAAAAAAAAAAAAAAAAAAAAAAAAAAAAAAAAAAAAAAAAAAAAAAAAAAAAAAAAAAAAAAAAAAAAAAAAAAAAAAAAAAAAAAAAAAAAAAAAAAAAAAAAAAAAAAAAAAAAAAAAAAAAAAAAAAAAAAAAAAAAAAAAAAAAAAAAAAAAAAAAAAAAAAAAAAAAAAAAAAAAAAAAAAAAAAAAAAAAAAAAAAAAAAAAAAAAAAAAAAAAAAAAAAAAAAAAAAAAAAAAAAAAAAAAAAAAAAAAAAAAAAAAAAAAAAAAAAAAAAAAAAAAAAAAAAAAAAAAAAAAAAAAAAAAAAAAAAAAAAAAAAAAAAAAAAAAAAAAAAAAAAAAAAAAAAAAAAAAAAAAAAAAAAAAAAAAAAAAAAAAAAAAAAAAAAAAAAAAAAAAAAAAAAAAAAAAAAAAAAAAAAAAAAAAAAAAAAAAAAAAAAAAAAAAAAAAAAAAAAAAAAAAAAAAAAAAAAAAAAAAAAAAAAAAAAAAAAAAAAAAAAAAAAAAAAAAAAAAAAAAAAAAAAAAAAAAAAAAAAAAAAAAAAAAAAAAAAAAAAAAAAAAAAAAAAAAAAAAAAAAAAAAAAAAAAAAAAAAAAAAAAAAAAAAAAAAAAAAAAAAAAAAAAAAAAAAAAAAAAAAAAAAAAAAAAAAAAAAAAAAAAAAAAAAAAAAAAAAAAAAAAAAAAAAAAAAAAAAAAAAAAAAAAAAAAAAAAAAAAAAAAAAAAAAAAAAAAAAAAAAAAAAAAAAAAAAAAAAAAAAAAAAAAAAAAAAAAAAAAAAAAAAAAAAAAAAAAAAAAAAAAAAAAAAAAAAAAAAAAAAAAAAAAAAAAAAAAAAAAAAAAAAAAAAAAAAAAAAAAAAAAAAAAAAAAAAAAAAAAAAAAAAAAAAAAAAAAAAAAAAAAAAAAAAAAAAAAAAAAAAAAAAAAAAAAAAAAAAAAAAAAAAAAAAAAAAAAAAAAAAAAAAAAAAAAAAAAAAAAAAAAAAAAAAAAAAAAAAAAAAAAAAAAAAAAAAAAAAAAAAAAAAAAAAAAAAAAAAAAAAAAAAAAAAAAAAAAAAAAAAAAAAAAAAAAAAAAAAAAAAAAAAAAAAAAAAAAAAAAAAAAAAAAAAAAAAAAAAAAAAAAAAAAAAAAAAAAAAAAAAAAAAAAAAAAAAAAAAAAAAAAAAAAAAAAAAAAAAAAAAAAAAAAAAAAAAAAAAAAAAAAAAAAAAAAAAAAAAAAAAAAAAAAAAAAAAAAAAAAAAAAAAAAAAAAAAAAAAAAAAAAAAAAAAAAAAAAAAAAAAAAAAAAAAAAAAAAAAAAAAAAAAAAAAAAAAAAAAAAAAAAAAAAAAAAAAAAAAAAAAAAAAAAAAAAAAAAAAAAAAAAAAAAAAAAAAAAAAAAAAAAAAAAAAAAAAAAAAAAAAAAAAAAAAAAAAAAAAAAAAAAAAAAAAAAAAAAAAAAAAAAAAAAAAAAAAAAAAAAAAAAAAAAAAAAAAAAAAAAAAAAAAAAAAAAAAAAAAAAAAAAAAAAAAAAAAAAAAAAAAAAAAAAAAAAAAAAAAAAAAAAAAAAAAAAAAAAAAAAAAAAAAAAAAAAAAAAAAAAAAAAAAAAAAAAAAAAAAAAAAAAAAAAAAAAAAAAAAAAAAAAAAAAAAAAAAAAAAAAAAAAAAAAAAAAAAAAAAAAAAAAAAAAAAAAAAAAAAAAAAAAAAAAAAAAAAAAAAAAAAAAAAAAAAAAAAAAAAAAAAAAAAAAAAAAAAAAAAAAAAAAAAAAAAAAAAAAAAAAAAAAAAAAAAAAAAAAAAAAAAAAAAAAAAAAAAAAAAAAAAAAAAAAAAAAAAAAAAAAAAAAAAAAAAAAAAAAAAAAAAAAAAAAAAAAAAAAAAAAAAAAAAAAAAAAAAAAAAAAAAAAAAAAAAAAAAAAAAAAAAAAAAAAAAAAAAAAAAAAAAAAAAAAAAAAAAAAAAAAAAAAAAAAAAAAAAAAAAAAAAAAAAAAAAAAAAAAAAAAAAAAAAAAAAAAAAAAAAAAAAAAAAAAAAAAAAAAAAAAAAAAAAAAAAAAAAAAAAAAAAAAAAAAAAAAAAAAAAAAAAAAAAAAAAAAAAAAAAAAAAAAAAAAAAAAAAAAAAAAAAAAAAAAAAAAAAAAAAAAAAAAAAAAAAAAAAAAAAAAAAAAAAAAAAAAAAAAAAAAAAAAAAAAAAAAAAAAAAAAAAAAAAAAAAAAAAAAAAAAAAAAAAAAAAAAAAAAAAAAAAAAAAAAAAAAAAAAAAAAAAAAAAAAAAAAAAAAAAAAAAAAAAAAAAAAAAAAAAAAAAAAAAAAAAAAAAAAAAAAAAAAAAAAAAAAAAAAAAAAAAAAAAAAAAAAAAAAAAAAAAAAAAAAAAAAAAAAAAAAAAAAAAAAAAAAAAAAAAAAAAAAAAAAAAAAAAAAAAAAAAAAAAAAAAAAAAAAAAAAAAAAAAAAAAAAAAAAAAAAAAAAAAAAAAAAAAAAAAAAAAAAAAAAAAAAAAAAAAAAAAAAAAAAAAAAAAAAAAAAAAAAAAAAAAAAAAAAAAAAAAAAAAAAAAAAAAAAAAAAAAAAAAAAAAAAAAAAAAAAAAAAAAAAAAAAAAAAAAAAAAAAAAAAAAAAAAAAAAAAAAAAAAAAAAAAAAAAAAAAAAAAAAAAAAAAAAAAAAAAAAAAAAAAAAAAAAAAAAAAAAAAAAAAAAAAAAAAAAAAAAAAAAAAAAAAAAAAAAAAAAAAAAAAAAAAAAAAAAAAAAAAAAAAAAAAAAAAAAAAAAAAAAAAAAAAAAAAAAAAAAAAAAAAAAAAAAAAAAAAAAAAAAAAAAAAAAAAAAAAAAAAAAAAAAAAAAAAAAAAAAAAAAAAAAAAAAAAAAAAAAAAAAAAAAAAAAAAAAAAAAAAAAAAAAAAAAAAAAAAAAAAAAAAAAAAAAAAAAAAAAAAAAAAAAAAAAAAAAAAAAAAAAAAAAAAAAAAAAAAAAAAAAAAAAAAAAAAAAAAAAAAAAAAAAAAAAAAAAAAAAAAAAAAAAAAAAAAAAAAAAAAAAAAAAAAAAAAAAAAAAAAAAAAAAAAAAAAAAAAAAAAAAAAAAAAAAAAAAAAAAAAAAAAAAAAAAAAAAAAAAAAAAAAAAAAAAAAAAAAAAAAAAAAAAAAAAAAAAAAAAAAAAAAAAAAAAAAAAAAAAAAAAAAAAAAAAAAAAAAAAAAAAAAAAAAAAAAAAAAAAAAAAAAAAAAAAAAAAAAAAAAAAAAAAAAAAAAAAAAAAAAAAAAAAAAAAAAAAAAAAAAAAAAAAAAAAAAAAAAAAAAAAAAAAAAAAAAAAAAAAAAAAAAAAAAAAAAAAAAAAAAAAAAAAAAAAAAAAAAAAAAAAAAAAAAAAAAAAAAAAAAAAAAAAAAAAAAAAAAAAAAAAAAAAAAAAAAAAAAAAAAAAAAAAAAAAAAAAAAAAAAAAAAAAAAAAAAAAAAAAAAAAAAAAAAAAAAAAAAAAAAAAAAAAAAAAAAAAAAAAAAAAAAAAAAAAAAAAAAAAAAAAAAAAAAAAAAAAAAAAAAAAAAAAAAAAAAAAAAAAAAAAAAAAAAAAAAAAAAAAAAAAAAAAAAAAAAAAAAAAAAAAAAAAAAAAAAAAAAAAAAAAAAAAAAAAAAAAAAAAAAAAAAAAAAAAAAAAAAAAAAAAAAAAAAAAAAAAAAAAAAAAAAAAAAAAAAAAAAAAAAAAAAAAAAAAAAAAAAAAAAAAAAAAAAAAAAAAAAAAAAAAAAAAAAAAAAAAAAAAAAAAAAAAAAAAAAAAAAAAAAAAAAAAAAAAAAAAAAAAAAAAAAAAAAAAAAAAAAAAAAAAAAAAAAAAAAAAAAAAAAPZYQJR+htJJ8Gt7pZrUjlFb0SDANI0EqXDIyp3FkoPOVq5n6r4iuJ7hRJyllabXQvnpJFSaAbIYLZb/UPSbvYu7txw=</c2pa:manifest></metadata>
  <defs>
    <style>
      .st0 {
        stroke: #fff;
        stroke-linecap: round;
        stroke-linejoin: round;
      }
    </style>
  </defs>
  <path class="st0" d="M524.1,500.9l-82.9-146.3c4.9-5.3,8.7-12.5,8.7-20s-6.7-16.6-10.6-23.1c-10.7-17.7-22.9-34.6-33.4-52.4,8-9.3,9.5-18.9,6.9-30.9-.5-2.1-3.7-7.9-3.6-9,0-1.1,5-5.8,4.6-9.5,0-.3,0-.5.2-.6-.6-2.1-1.3-4.1-2.3-5.9,0,0,0-.2-.1-.2-1.2-1.9-2.7-3.7-4-5.6-1.5-1.1-3.2-2.3-5.1-3.7-29.8-21.2-68.9,28-77.1,53.5-1.1,3.4-3.6,17.6-4.5,18.7-.9,1.1-11.9,4.3-10.5,6.6l16.7,6.9c.7,2.3-5.4,14.5-6,17.9-.7,4.7,7.6-1.4,8.8-1.4s.2,0,.2,0c-.1,0-2.9.2,5.8,2.8,10.1,3,21.6,2,30.2-4.6,1.7-1.3,3.2-3.8,4.8-4.8.8-.5.6-1.3,1.6,0l30.1,63.7c6.3,7.6,16.5,10.1,26,7.8l78.7,154.6c9.5,7.4,26-2.5,16.8-14.4ZM384.8,190.9h0c8.8-.6,16.9,2.2,22.2,9.5,1.2,1.8,5.7,4,5.1,10.6-.6,6.6-12.8,12.9-18.7,13.4-3.3.3-6.1-1-8.7-.8s-.2,3.6-7.8,2.8c-7.6-.8-14.3-19.5-14.2-26.4,6.1-5,14.3-8.5,22.2-9.1ZM360.9,201.1c1.4,9.2,5.1,22.7,14.4,26.5-7.4,9.6-13.6,6.2-19.4-3.5s-6.4-18.1,5-23ZM349.3,210.7c2.2,9.5,6.1,21.1,16.4,24.1h0c1,1.4-9.5,10.2-10.8,12-3.1,0-14.1-19.5-14.1-23.7s5.8-9.2,8.5-12.4ZM338.8,224.4c3.4,8.8,8,17.1,14.7,23.8-2.7,5.1-6.9,9.5-7.9,15.5h0c-6.7-1.2-9.4-9.1-11-17.5s-2.1-15.2,4.2-21.8ZM323.1,297.5l6.3-18.8c-.4-2-17.2-6-15.9-7.7,2.3-1,7.8-2.5,9.2-4.9,1.4-2.4,1.9-10.1,3.1-14.6s3.3-11,6.2-14.3c.1,9.2,2.4,19.5,9.1,26.2v.2c.9.9,2.4,1.4,3.7,2v1c-4.5,11.1-10.8,25-21.7,30.9ZM370,287.1c-.7.5-3.5,4.6-5.6,6.1-9.4,6.9-22.7,6.5-33.1,1.7,2.2-5.1,6.3-9.2,9.2-14.4,4.4-7.9,6.1-16.9,10.2-24.3,4.6-8.3,22.8-27,31.7-30,4.9-1.7,2.6.5,8.5.5s12-4.1,17.3-6.3h.1c2.7,6.6,4.7,15.5,3.9,22.7-.5,3.8-4.7,11.9-7.7,14-3,2.1-7.9,4.1-11.5,2.5,1.3,9.9-8,21.6-16.5,25.6-2,.9-5.8,1.4-6.5,1.9ZM508.6,514.1l-76.5-151.3-2.8-3.7c-9.2,2-18.8.3-25.1-6.9l-30.5-64.5h-.2l6.4-1.6c5.2,12.8,12.8,24.8,19.4,37.1,3.1,5.7,5.5,11.9,9.1,17.4.1.2.2.4.2.6.3-.2.6-.4,1-.6l-28.5-55.3c-.1-1,3.3-4.2,4.1-4.8.8-.6.7-1.3,1.6,0l29.7,56.3c.3-.1.5-.3.8-.4l-.2-1.2-28.3-54.3c-1.4-2.3,0-4.6,1.5-6.6.5-.6-.1-1.5,1.8-1l33.3,58.7c.2-.1.5-.3.7-.4-.6-1.8-1.7-3.6-2.6-5.2-9.5-18.3-21.1-35.6-30.3-54l-.2-2.6,2.7-7,38.5,63.8s0,0,0,0l-36.2-62.9v-1.7l6.1-2c11,18.2,23.6,35.5,34.5,53.8,7.2,12.1,13.9,20.3,5.5,34.4-1.2,1.9-5.1,4.7-4.6,7.1l83.2,147.1c7.7,9.5-6.8,18.1-14.2,11.8Z"/>
  <path class="st0" d="M361.4,393.9c5.2-6.5,9.3-7.8,11.5,1.7l9.6-2,3.2,10.1,6-3.1,4.4,7.5,9.5,2.2,2.2,14.3,9.7,4.8c-1.4,5.5.6,4.2,2.6,6.9,2.9,4,3.5,6.6,3.7,11.6l3.7.7-1.6,11.2,4-.5c4.3,7.6,7.9,15.4,8.7,24.2,1.2,12.4,1.4,30.4-8.8,39.2l-214.8-25.4c-2.2-1.4,1.7-14.2,2.5-16.9,16.7-54.8,65.9-112.5,129.3-92.1,2.5.8,13.5,6.2,14.7,5.5h-.1ZM432.2,467.9c0,11.3.3,22.7-1.8,33.8-.4,2.3-2.9,15.3-7,13.1s-2.8-12.4-3.3-16c-10-66.1-61.1-142-136.9-103.4-36.3,18.5-59.9,61.7-67.5,100.5l212.1,25.7c1.6-.2,5.4-4.3,6.2-5.9,4.8-9.2,3.8-32.2.8-42.1-.5-1.6-1.1-5-2.6-5.8h0ZM392,403l-6.7,2.3-3.6-9.3-9.1,1.2-4.2-7.1-5.4,3.1-.4,2c28.1,17.5,44.6,46.5,53.9,77.6l5.8,29.5c5.1-4.2,2.7-10.7,4.5-16.3l-4-2.5,3.1-4.7-4-4.1c3.9-4.9,8.9-6.3,7.3-14l-5.6,1.6,2.3-11.5c-.5-1.6-4-1.2-5.8-2.1s-6.4-6-6.5-6.4l2.6-11.7-9.9-5.2-2.1-14.4-8.8-1.3-3.3-6.8h0ZM421.7,447.8c2-2.2-1.6-12.1-5.6-12l-1.2,6.4,6.8,5.6h0ZM421.9,504.1c-.8,1.3.6,8.6,2.6,9.5,3.2,0,6.6-27.1,6.8-30.9s-.4-9.8-.8-14.8l-6.4,8c7.9,1.8-.2,6.7.8,8l3.1.9c-1,5.8-.2,13.1-3.9,18s-2,1-2.3,1.3h0Z"/>
  <path class="st0" d="M213.8,138.5l130,224.9.2,2.2c-.3,2.4-5.7,5.6-7.9,4.3l-146.5-216.4c-1.7-4,2.1-7.2,4.8-9.6s15-9,19.4-5.4ZM342.3,366.8l-3.3-8.3-125.4-217c-4.8-5.9-22.4,3.9-22,9.9l145.3,216,5.5-.6h-.1Z"/>
  <path class="st0" d="M330.8,374.8L111.2,231.9c-.8-.5-1.5-.6-2.4-.5h.2c-4.2.7-10.5,8.1-13,13.5-.2.3-.3.6-.6.9-.1.6-.2,1.2-.4,1.9-.5,2.3-.7,4.6-.8,7,0,.2.1.5.2.7.9.7,2,1.4,3.2,2.3,14.8,10.1,38,19.8,54.5,28.8,35.8,19.6,71.5,39.1,107.4,58.6,22.6,12.2,44.8,25.6,68,36.7,2.2-1.3,4.5-4.4,3.2-6.9ZM328.5,378.7h0c-.5.4-1.2.6-1.8.6l-230.6-125.3c-2.1-5.4,8.6-20.2,13.2-20.2s2.4.9,3.4,1.4l216.5,140.5c.5.9,0,2.4-.7,3Z"/>
  <path class="st0" d="M221.1,351.8c5.2,22.3-4.2,45.5-16.4,63.9-14.6,22.2-41,47-69.3,45.3l-77.8,84.2c-4.1,1.9-10.6-1.1-13.6-4s-9.9-13-7.3-16.9l182.1-173.2,2.3.6h0ZM134,459.2c27.9,2.1,53-21,67.9-42.4,12.4-17.9,22.6-41.6,17.8-63.6l-180.5,172c-3.9,6.7,10.2,21.9,17.7,18.5,25.8-28.1,52.4-55.5,77.2-84.4h0Z"/>
  <path class="st0" d="M392.9,465.4c-2.8-13.5-9.6-26-18-36.9l-15.6-15.2c2.3.6,5,2.6,6.8,4,6.6,5.4,14.4,15.6,18.7,23s6.6,16,10.6,23.9l-2.4,1.2h-.1Z"/>
  <path class="st0" d="M242.1,491.1c.2.2,0,1.1-.4,1.6-3,3.6-2.5-4.2.4-1.6Z"/>
  <path class="st0" d="M393.7,507.1h-2.4c0-2.9,2.4-2.9,2.4,0Z"/>
  <rect class="st0" x="290.2" y="449.4" width="2.4" height="1.6"/>
  <path class="st0" d="M253.3,459.8c-1.2-1.2,2.4-3.4,2.4-1.2s-1.9,1.7-2.4,1.2Z"/>
  <rect class="st0" x="225.3" y="490.3" width="2.4" height="1.6"/>
  <rect class="st0" x="396.1" y="498.3" width="2.4" height="1.6"/>
  <path class="st0" d="M382.4,503.9c-1.2-1.2,2.4-3.4,2.4-1.2s-1.9,1.7-2.4,1.2Z"/>
  <rect class="st0" x="374.4" y="505.5" width="2.4" height="1.6"/>
</svg>
